<?xml version="1.0" encoding="UTF-8" standalone="no"?>
<svg width="81px" height="100px" viewBox="0 0 81 100" version="1.1" xmlns="http://www.w3.org/2000/svg" xmlns:xlink="http://www.w3.org/1999/xlink" xmlns:sketch="http://www.bohemiancoding.com/sketch/ns">
    <!-- Generator: Sketch 3.1 (8751) - http://www.bohemiancoding.com/sketch -->
    <title>mineral</title>
    <desc>Created with Sketch.</desc>
    <defs></defs>
    <g id="Page-1" stroke="none" stroke-width="1" fill="none" fill-rule="evenodd" sketch:type="MSPage">
        <g id="Artboard" sketch:type="MSArtboardGroup" transform="translate(0.462000, -0.154000)" fill="#000000">
            <path d="M71.2927397,38.4435694 L59.8297456,42.8563827 L65.5306532,44.8225403 L71.2927397,38.4435694 Z M65.9170462,46.4247326 L38.4740157,99.1597935 L38.2663295,99.7248976 L42.9288057,100 C46.6982847,94.2026286 72.2190097,55.5595168 75.3004944,50.8950141 L65.9170462,46.4247326 Z M58.8444433,43.8131219 L41.8329521,90.0356516 L64.8024096,45.8936838 L64.6344359,45.8138669 L64.6381925,45.8101421 L58.8444433,43.8131219 Z M76.4124478,51.4484116 C68.399085,63.5795243 55.4323779,83.2235407 48.4155872,93.8849572 L80,53.676901 L79.9962434,53.6529559 L76.4124478,51.4484116 Z M77.3548175,40.0415048 L73.0288252,38.3552387 L66.6511931,45.4153142 L75.6718611,49.7121269 L77.3548175,40.0415048 Z M78.4045187,41.2132177 L76.828357,50.2633959 L79.7960703,52.0880115 L78.4045187,41.2132177 Z M27.0544908,35.5174799 L21.106721,25.1465971 L19.7607851,24.4952908 L18.3880164,25.8564359 L13.419109,36.4619805 L27.0544908,35.5174799 Z M11.9814048,36.4875219 L16.7136465,27.5171606 L8.58382918,35.5808014 L11.9814048,36.4875219 Z M29.7538757,99.1119034 L27.8868459,36.67589 L13.1996163,37.7034002 L26.8838339,99.0496461 L29.7538757,99.1119034 Z M11.9475954,37.7454371 L7.95325717,36.6812111 L24.2676309,98.9921779 L25.6135667,99.0219763 L11.9475954,37.7454371 Z M22.8406598,25.9862715 L28.4320894,35.4216996 L28.4417492,35.4206353 L36.0885752,32.3971692 L22.8406598,25.9862715 Z M29.1174004,36.5002927 L30.9892602,99.1395732 L32.1613191,99.1645826 L36.5613701,33.5225882 L29.1174004,36.5002927 Z M1.42321444,84.6746129 L0.0316627647,85.1407439 L15.7278076,98.9469483 L16.4211684,98.959719 L1.42321444,84.6746129 Z M5.44706885,81.0663545 L1.6298274,79.1635183 L1.10014691,79.2342894 L0.964909339,79.9042197 L1.60460452,84.0084074 L5.44706885,81.0663545 Z M6.24990776,80.9540786 L19.1838788,99.0139946 L19.6641869,99.0230405 L7.85880554,78.6212952 L6.24990776,80.9540786 Z M1.18440206,84.2968126 L0.801228945,80.7210131 L1.42108547e-14,84.693769 L1.18440206,84.2968126 Z M18.6386353,99.0028202 L5.92201032,81.2467408 L1.78545794,84.4170702 L17.0673035,98.973554 L18.6386353,99.0028202 Z M5.83775516,80.7662427 L7.49495207,78.380248 L2.30869854,79.0730591 L5.83507188,80.7689033 L5.83775516,80.7662427 Z M61.551878,25.7510775 L54.3311576,18.1211089 L49.1958865,21.9624328 L37.1339831,99.7004204 L61.551878,25.7510775 Z M48.609857,20.2043314 L53.2932629,16.3779067 L48.016851,0.59011334 L36.2173729,9.4237216 L48.609857,20.2043314 Z M55.5499057,16.8717076 L61.9887168,23.6747725 L61.4230803,12.1944341 L49.7926491,0 L55.5499057,16.8717076 Z M34.6433579,10.644921 L26.9970685,16.3273559 L27.2825701,26.5604214 L38.2926257,31.8756984 L33.78256,99.5626031 L35.4826895,99.6653009 L47.7860885,21.5319534 L34.6433579,10.644921 Z M12.0318506,69.6339062 L14.1162265,67.4192518 L8.74697292,65.8633534 L12.0275573,69.6339062 L12.0318506,69.6339062 Z M8.04234224,65.659022 L7.49602538,65.5009844 L7.24647987,66.2746767 L7.1960341,71.7171287 L11.5848153,69.8254669 L8.04234224,65.659022 Z M12.4182437,70.061193 L22.5444251,98.9959027 L22.9324282,98.9863247 L14.4441239,67.8896398 L12.4182437,70.061193 Z M6.90033608,72.4658117 L5.41057617,72.3998297 L19.9995975,99.062949 L20.5228381,99.0496461 L6.90033608,72.4658117 Z M6.9400487,67.22237 L5.45404539,71.8246155 L6.72162929,71.8810195 L6.9400487,67.22237 Z M22.0920233,99.0076092 L12.0372172,70.2751024 L7.30926874,72.3125632 L21.0074394,99.0368754 L22.0920233,99.0076092 Z" id="mineral" sketch:type="MSShapeGroup"></path>
        </g>
    </g>
</svg>